<?xml version="1.0" standalone="no"?>
<!DOCTYPE svg PUBLIC "-//W3C//DTD SVG 20010904//EN"
 "http://www.w3.org/TR/2001/REC-SVG-20010904/DTD/svg10.dtd">
<svg version="1.0" xmlns="http://www.w3.org/2000/svg"
 width="500.000000pt" height="500.000000pt" viewBox="0 0 500.000000 500.000000"
 preserveAspectRatio="xMidYMid meet">

<g transform="translate(0.000000,500.000000) scale(0.100000,-0.100000)"
fill="#000000" stroke="none">
<path d="M3355 2872 c-97 -20 -81 -172 18 -172 53 0 87 32 87 84 0 23 -6 50
-12 59 -15 20 -64 35 -93 29z"/>
<path d="M3790 2756 l0 -115 -52 6 c-76 8 -129 -10 -171 -57 -44 -48 -59 -100
-58 -207 0 -144 51 -213 157 -213 38 0 61 6 88 25 44 30 46 30 46 5 0 -18 7
-20 70 -20 l70 0 0 345 0 345 -75 0 -75 0 0 -114z m-22 -232 c21 -6 22 -11 22
-105 l0 -99 -34 -17 c-71 -33 -116 10 -116 112 0 49 4 60 29 86 29 29 54 35
99 23z"/>
<path d="M1610 2515 l0 -335 75 0 75 0 0 74 c0 113 14 115 90 16 34 -45 68
-84 74 -86 7 -3 45 -4 83 -2 l70 3 -79 100 c-126 159 -124 128 -18 250 l91
105 -78 0 -78 0 -75 -86 -75 -87 -3 192 -2 191 -75 0 -75 0 0 -335z"/>
<path d="M80 2506 l0 -326 173 0 c195 0 256 12 299 57 78 82 61 216 -33 267
l-36 19 44 42 c41 40 43 44 43 99 0 77 -20 113 -78 139 -40 17 -73 21 -229 25
l-183 5 0 -327z m317 178 c13 -8 23 -23 23 -33 0 -29 -54 -68 -110 -80 -83
-18 -80 -20 -80 65 l0 77 72 -7 c40 -4 83 -13 95 -22z m30 -259 c41 -29 34
-84 -14 -108 -15 -8 -62 -16 -103 -18 l-75 -4 -3 73 -3 72 88 0 c62 0 95 -4
110 -15z"/>
<path d="M2400 2506 l0 -326 173 0 c195 0 256 12 299 57 78 82 61 216 -33 267
l-36 19 44 42 c41 40 43 44 43 99 0 77 -20 113 -78 139 -40 17 -73 21 -229 25
l-183 5 0 -327z m317 178 c13 -8 23 -23 23 -33 0 -29 -54 -68 -110 -80 -83
-18 -80 -20 -80 65 l0 77 72 -7 c40 -4 83 -13 95 -22z m30 -259 c41 -29 34
-84 -14 -108 -15 -8 -62 -16 -103 -18 l-75 -4 -3 73 -3 72 88 0 c62 0 95 -4
110 -15z"/>
<path d="M788 2640 c-55 -16 -97 -51 -120 -98 -19 -39 -23 -63 -23 -142 0
-110 19 -157 82 -200 32 -22 47 -25 122 -25 73 0 93 4 130 25 114 64 138 293
41 390 -52 52 -153 74 -232 50z m132 -145 c19 -20 23 -36 23 -85 0 -76 -26
-110 -85 -110 -46 0 -74 25 -84 74 -9 48 3 103 27 127 28 28 89 26 119 -6z"/>
<path d="M1268 2640 c-55 -16 -97 -51 -120 -98 -19 -39 -23 -63 -23 -142 0
-110 19 -157 82 -200 32 -22 47 -25 122 -25 73 0 93 4 130 25 114 64 138 293
41 390 -52 52 -153 74 -232 50z m132 -145 c19 -20 23 -36 23 -85 0 -76 -26
-110 -85 -110 -46 0 -74 25 -84 74 -9 48 3 103 27 127 28 28 89 26 119 -6z"/>
<path d="M3149 2610 l-38 -40 -3 33 -3 32 -67 3 -68 3 0 -231 0 -230 70 0 70
0 0 125 c0 151 15 200 66 221 18 8 44 14 57 14 22 0 25 6 30 47 3 27 3 51 0
55 -2 5 -20 8 -40 8 -29 0 -44 -8 -74 -40z"/>
<path d="M4640 2639 c-53 -16 -95 -53 -121 -106 -19 -39 -24 -64 -24 -134 0
-78 3 -90 30 -134 42 -69 96 -95 192 -95 40 0 88 6 107 14 43 18 106 74 106
95 0 13 -58 61 -74 61 -3 0 -22 -11 -42 -25 -48 -32 -119 -34 -158 -4 -59 46
-23 59 168 59 l119 0 -6 71 c-7 84 -39 146 -93 180 -42 25 -148 35 -204 18z
m123 -110 c25 -14 37 -28 37 -46 0 -10 -24 -13 -85 -13 -92 0 -100 6 -60 45
26 27 72 33 108 14z"/>
<path d="M3310 2410 l0 -230 70 0 70 0 -2 228 -3 227 -67 3 -68 3 0 -231z"/>
<path d="M4088 2611 c-130 -82 -127 -328 5 -398 42 -22 132 -22 175 0 l32 18
0 -40 c0 -53 -26 -71 -100 -71 -48 1 -82 9 -140 34 -11 4 -20 -6 -33 -39 -10
-24 -16 -49 -13 -54 15 -23 118 -51 189 -51 89 0 137 13 178 47 55 47 59 68
59 338 l0 245 -64 0 c-42 0 -66 -4 -68 -12 -4 -10 -10 -10 -32 0 -15 6 -53 12
-85 12 -46 0 -66 -6 -103 -29z m186 -102 c21 -10 26 -21 32 -67 8 -63 2 -77
-46 -110 -39 -26 -64 -22 -97 14 -31 34 -32 110 -2 148 23 29 69 35 113 15z"/>
<path d="M4520 1655 l0 -265 113 0 c123 0 158 12 194 67 27 42 26 191 -3 230
-41 56 -100 72 -181 47 -23 -6 -23 -5 -23 90 l0 96 -50 0 -50 0 0 -265z m205
-20 c66 -65 -5 -191 -89 -159 -13 5 -16 22 -16 85 0 73 2 80 23 89 37 15 57
11 82 -15z"/>
<path d="M4000 1651 l0 -261 50 0 50 0 -2 258 -3 257 -47 3 -48 3 0 -260z"/>
<path d="M3698 1879 c-92 -26 -158 -130 -158 -247 0 -159 79 -245 224 -245 80
0 119 15 160 63 35 43 33 67 -7 86 -32 15 -34 15 -65 -14 -42 -40 -81 -48
-126 -27 -44 21 -66 67 -66 139 0 79 21 123 66 142 46 19 83 11 119 -26 26
-27 30 -28 54 -15 56 30 55 30 31 72 -12 22 -35 47 -50 56 -35 21 -133 29
-182 16z"/>
<path d="M4150 1605 c0 -163 10 -197 65 -215 45 -15 82 -6 118 28 l27 26 0
-27 c0 -26 2 -27 55 -27 l55 0 0 175 0 175 -55 0 -55 0 0 -114 c0 -107 -1
-116 -22 -130 -63 -44 -88 -6 -88 136 l0 108 -50 0 -50 0 0 -135z"/>
</g>
</svg>
